<?xml version="1.0" encoding="UTF-8" standalone="no"?>
<svg width="121.92" height="380" viewBox="0 0 121.92 380" xmlns="http://www.w3.org/2000/svg">
  <!-- Panel Background - Green theme -->
  <rect width="121.92" height="380" fill="#1a1a2e" rx="8"/>
  
  <!-- Green decorative accent lines -->
  <line x1="10" y1="35" x2="111.92" y2="35" stroke="#39e87c" stroke-width="1" stroke-linecap="round" opacity="0.5"/>
  <line x1="10" y1="345" x2="111.92" y2="345" stroke="#39e87c" stroke-width="1" stroke-linecap="round" opacity="0.5"/>
  
  <!-- Decorative dots -->
  <circle cx="20" cy="50" r="1.5" fill="#39e87c" opacity="0.6"/>
  <circle cx="101.92" cy="50" r="1.5" fill="#39e87c" opacity="0.6"/>
  <circle cx="20" cy="330" r="1.5" fill="#2ec769" opacity="0.6"/>
  <circle cx="101.92" cy="330" r="1.5" fill="#2ec769" opacity="0.6"/>
  
  <!-- Title -->
  <text x="60.96" y="20" font-family="Helvetica, Arial, sans-serif" font-size="11" fill="#39e87c" font-weight="bold" text-anchor="middle">OSCILLATEUR</text>
  <text x="60.96" y="32" font-family="Helvetica, Arial, sans-serif" font-size="11" fill="#39e87c" font-weight="bold" text-anchor="middle">TRITONIQUE</text>
  
  <!-- Main knob circles -->
  <circle fill="#2a2a40" stroke="#39e87c" stroke-width="2" cx="38.48" cy="90" r="18"/>
  <text x="38.48" y="120" font-family="sans-serif" font-size="11" fill="#ffffff" text-anchor="middle">Topo</text>
  
  <circle fill="#2a2a40" stroke="#39e87c" stroke-width="2" cx="76.8" cy="90" r="18"/>
  <text x="76.8" y="120" font-family="sans-serif" font-size="11" fill="#ffffff" text-anchor="middle">Skew</text>
  
  <circle fill="#2a2a40" stroke="#39e87c" stroke-width="2" cx="38.48" cy="164" r="18"/>
  <text x="38.48" y="186" font-family="sans-serif" font-size="11" fill="#ffffff" text-anchor="middle">Bloom</text>
  
  <circle fill="#2a2a40" stroke="#39e87c" stroke-width="2" cx="76.8" cy="164" r="18"/>
  <text x="76.8" y="186" font-family="sans-serif" font-size="11" fill="#ffffff" text-anchor="middle">Glide</text>
  
  <!-- V/Oct and Output -->
  <circle fill="#1a1a2e" stroke="#39e87c" stroke-width="2" cx="38.48" cy="320" r="12"/>
  <text x="38.48" y="345" font-family="sans-serif" font-size="11" fill="#ffffff" text-anchor="middle">V/Oct</text>
  
  <circle fill="#1a1a2e" stroke="#39e87c" stroke-width="2" cx="76.8" cy="320" r="12"/>
  <text x="76.8" y="345" font-family="sans-serif" font-size="11" fill="#ffffff" text-anchor="middle">Out</text>
  
  <!-- Knob labels -->
  <text x="8" y="50" font-family="Arial" font-size="3.5" fill="#39e87c" text-anchor="middle">Topology</text>
  <text x="22" y="50" font-family="Arial" font-size="3.5" fill="#39e87c" text-anchor="middle">Skew</text>
  <text x="8" y="70" font-family="Arial" font-size="3.5" fill="#39e87c" text-anchor="middle">Bloom</text>
  <text x="22" y="70" font-family="Arial" font-size="3.5" fill="#39e87c" text-anchor="middle">Glide</text>
  
  <!-- Port labels -->
  <text x="8" y="108" font-family="Arial" font-size="3" fill="#39e87c" text-anchor="middle">V/Oct</text>
  <text x="22" y="108" font-family="Arial" font-size="3" fill="#39e87c" text-anchor="middle">Out</text>
  
  <!-- Knob circles (2x2 grid) -->
  <circle cx="8" cy="24" r="4" fill="none" stroke="#39e87c" stroke-width="0.3"/>
  <circle cx="22" cy="24" r="4" fill="none" stroke="#39e87c" stroke-width="0.3"/>
  <circle cx="8" cy="44" r="4" fill="none" stroke="#39e87c" stroke-width="0.3"/>
  <circle cx="22" cy="44" r="4" fill="none" stroke="#39e87c" stroke-width="0.3"/>
  
  <!-- Attenuverter circles -->
  <circle cx="8" cy="35" r="1.5" fill="none" stroke="#39e87c" stroke-width="0.2"/>
  <circle cx="22" cy="35" r="1.5" fill="none" stroke="#39e87c" stroke-width="0.2"/>
  <circle cx="8" cy="55" r="1.5" fill="none" stroke="#39e87c" stroke-width="0.2"/>
  <circle cx="22" cy="55" r="1.5" fill="none" stroke="#39e87c" stroke-width="0.2"/>
  
  <!-- CV input circles -->
  <circle cx="8" cy="65" r="2" fill="none" stroke="#39e87c" stroke-width="0.3"/>
  <circle cx="22" cy="65" r="2" fill="none" stroke="#39e87c" stroke-width="0.3"/>
  <circle cx="8" cy="85" r="2" fill="none" stroke="#39e87c" stroke-width="0.3"/>
  <circle cx="22" cy="85" r="2" fill="none" stroke="#39e87c" stroke-width="0.3"/>
  
  <!-- V/Oct and Output circles -->
  <circle cx="8" cy="100" r="2" fill="none" stroke="#39e87c" stroke-width="0.3"/>
  <circle cx="22" cy="100" r="2" fill="none" stroke="#39e87c" stroke-width="0.3"/>
  
  <!-- Decorative elements - matching other modules -->
  <circle cx="3" cy="115" r="0.4" fill="#39e87c"/>
  <circle cx="6" cy="117" r="0.4" fill="#39e87c"/>
  <circle cx="9" cy="115" r="0.4" fill="#39e87c"/>
  
  <circle cx="21" cy="115" r="0.4" fill="#39e87c"/>
  <circle cx="24" cy="117" r="0.4" fill="#39e87c"/>
  <circle cx="27" cy="115" r="0.4" fill="#39e87c"/>
  
  <!-- Decorative accent lines -->
  <line x1="2" y1="78" x2="10" y2="78" stroke="#39e87c" stroke-width="0.2" opacity="0.6"/>
  <line x1="20" y1="78" x2="28" y2="78" stroke="#39e87c" stroke-width="0.2" opacity="0.6"/>
</svg>
