<?xml version="1.0" encoding="UTF-8" standalone="no"?>
<svg
   width="121.92"
   height="380"
   viewBox="0 0 121.92 380"
   version="1.1"
   xmlns="http://www.w3.org/2000/svg">
  
  <!-- Background -->
  <rect
     fill="#1a1a2e"
     width="121.92"
     height="380"
     x="0"
     y="0"
     rx="8" />
  
  <!-- Orange decorative accent lines -->
  <line x1="10" y1="35" x2="111.92" y2="35" stroke="#e8a039" stroke-width="1" stroke-linecap="round" opacity="0.5"/>
  <line x1="10" y1="345" x2="111.92" y2="345" stroke="#e8a039" stroke-width="1" stroke-linecap="round" opacity="0.5"/>
  
  <!-- Decorative dots -->
  <circle cx="20" cy="50" r="1.5" fill="#e8a039" opacity="0.6"/>
  <circle cx="101.92" cy="50" r="1.5" fill="#e8a039" opacity="0.6"/>
  <circle cx="20" cy="330" r="1.5" fill="#c08020" opacity="0.6"/>
  <circle cx="101.92" cy="330" r="1.5" fill="#c08020" opacity="0.6"/>
  
  <!-- Main knob circles - 2x2 grid -->
  <circle fill="#2a2a40" stroke="#e8a039" stroke-width="2" cx="49.73" cy="90" r="18"/>
  <circle fill="#2a2a40" stroke="#e8a039" stroke-width="2" cx="194.14" cy="90" r="18"/>
  <circle fill="#2a2a40" stroke="#e8a039" stroke-width="2" cx="49.73" cy="184" r="18"/>
  <circle fill="#2a2a40" stroke="#e8a039" stroke-width="2" cx="194.14" cy="184" r="18"/>
  
  <!-- Attenuverter circles -->
  <circle fill="none" stroke="#c08830" stroke-width="1" cx="49.73" cy="283.5" r="8"/>
  <circle fill="none" stroke="#c08830" stroke-width="1" cx="194.14" cy="283.5" r="8"/>
  <circle fill="none" stroke="#c08830" stroke-width="1" cx="49.73" cy="321.3" r="8"/>
  <circle fill="none" stroke="#c08830" stroke-width="1" cx="194.14" cy="321.3" r="8"/>
  
  <!-- CV input jacks -->
  <circle fill="none" stroke="#c08830" stroke-width="1.5" cx="49.73" cy="347.6" r="12"/>
  <circle fill="none" stroke="#c08830" stroke-width="1.5" cx="194.14" cy="347.6" r="12"/>
  <circle fill="none" stroke="#c08830" stroke-width="1.5" cx="49.73" cy="378" r="12"/>
  <circle fill="none" stroke="#c08830" stroke-width="1.5" cx="194.14" cy="378" r="12"/>
  
  <!-- Channel inputs -->
  <circle fill="none" stroke="#e8a039" stroke-width="1.5" cx="49.73" cy="415.8" r="12"/>
  <circle fill="none" stroke="#e8a039" stroke-width="1.5" cx="49.73" cy="446.1" r="12"/>
  <circle fill="none" stroke="#e8a039" stroke-width="1.5" cx="194.14" cy="415.8" r="12"/>
  <circle fill="none" stroke="#e8a039" stroke-width="1.5" cx="194.14" cy="446.1" r="12"/>
  
  <!-- Output jacks -->
  <circle fill="none" stroke="#f0b050" stroke-width="2" cx="121.92" cy="476.4" r="12"/>
  <circle fill="none" stroke="#f0b050" stroke-width="2" cx="121.92" cy="506.7" r="12"/>
  
</svg>
