<?xml version="1.0" encoding="UTF-8" standalone="no"?>
<svg width="121.92mm" height="128.5mm" viewBox="0 0 121.92 128.5" xmlns="http://www.w3.org/2000/svg">
  <!-- Panel Background - Teal theme -->
  <rect width="121.92" height="128.5" fill="#1a1a1a"/>
  
  <!-- Title -->
  <text x="15" y="15" font-family="Arial" font-size="9" fill="#39e8d4" font-weight="bold">TEMPORALISTE</text>
  
  <!-- Knob labels -->
  <text x="8" y="50" font-family="Arial" font-size="3.5" fill="#39e8d4" text-anchor="middle">Density</text>
  <text x="22" y="50" font-family="Arial" font-size="3.5" fill="#39e8d4" text-anchor="middle">Drift</text>
  <text x="8" y="70" font-family="Arial" font-size="3.5" fill="#39e8d4" text-anchor="middle">Accent</text>
  <text x="22" y="70" font-family="Arial" font-size="3.5" fill="#39e8d4" text-anchor="middle">TimeShift</text>
  
  <!-- Port labels -->
  <text x="15" y="103" font-family="Arial" font-size="3" fill="#39e8d4" text-anchor="middle">Clock</text>
  <text x="5" y="116" font-family="Arial" font-size="2.5" fill="#39e8d4" text-anchor="middle">G1</text>
  <text x="12" y="116" font-family="Arial" font-size="2.5" fill="#39e8d4" text-anchor="middle">G2</text>
  <text x="19" y="116" font-family="Arial" font-size="2.5" fill="#39e8d4" text-anchor="middle">G3</text>
  <text x="26" y="116" font-family="Arial" font-size="2.5" fill="#39e8d4" text-anchor="middle">G4</text>
  
  <!-- Knob circles (2x2 grid) -->
  <circle cx="8" cy="24" r="4" fill="none" stroke="#39e8d4" stroke-width="0.3"/>
  <circle cx="22" cy="24" r="4" fill="none" stroke="#39e8d4" stroke-width="0.3"/>
  <circle cx="8" cy="44" r="4" fill="none" stroke="#39e8d4" stroke-width="0.3"/>
  <circle cx="22" cy="44" r="4" fill="none" stroke="#39e8d4" stroke-width="0.3"/>
  
  <!-- Attenuverter circles -->
  <circle cx="8" cy="35" r="1.5" fill="none" stroke="#39e8d4" stroke-width="0.2"/>
  <circle cx="22" cy="35" r="1.5" fill="none" stroke="#39e8d4" stroke-width="0.2"/>
  <circle cx="8" cy="55" r="1.5" fill="none" stroke="#39e8d4" stroke-width="0.2"/>
  <circle cx="22" cy="55" r="1.5" fill="none" stroke="#39e8d4" stroke-width="0.2"/>
  
  <!-- CV input circles -->
  <circle cx="8" cy="65" r="2" fill="none" stroke="#39e8d4" stroke-width="0.3"/>
  <circle cx="22" cy="65" r="2" fill="none" stroke="#39e8d4" stroke-width="0.3"/>
  <circle cx="8" cy="85" r="2" fill="none" stroke="#39e8d4" stroke-width="0.3"/>
  <circle cx="22" cy="85" r="2" fill="none" stroke="#39e8d4" stroke-width="0.3"/>
  
  <!-- Clock input circle -->
  <circle cx="15" cy="95" r="2" fill="none" stroke="#39e8d4" stroke-width="0.3"/>
  
  <!-- Gate output circles -->
  <circle cx="5" cy="108" r="2" fill="none" stroke="#39e8d4" stroke-width="0.3"/>
  <circle cx="12" cy="108" r="2" fill="none" stroke="#39e8d4" stroke-width="0.3"/>
  <circle cx="19" cy="108" r="2" fill="none" stroke="#39e8d4" stroke-width="0.3"/>
  <circle cx="26" cy="108" r="2" fill="none" stroke="#39e8d4" stroke-width="0.3"/>
  
  <!-- Decorative elements - matching other modules -->
  <circle cx="3" cy="120" r="0.4" fill="#39e8d4"/>
  <circle cx="6" cy="122" r="0.4" fill="#39e8d4"/>
  <circle cx="9" cy="120" r="0.4" fill="#39e8d4"/>
  
  <circle cx="21" cy="120" r="0.4" fill="#39e8d4"/>
  <circle cx="24" cy="122" r="0.4" fill="#39e8d4"/>
  <circle cx="27" cy="120" r="0.4" fill="#39e8d4"/>
  
  <!-- Decorative accent lines -->
  <line x1="2" y1="78" x2="10" y2="78" stroke="#39e8d4" stroke-width="0.2" opacity="0.6"/>
  <line x1="20" y1="78" x2="28" y2="78" stroke="#39e8d4" stroke-width="0.2" opacity="0.6"/>
</svg>
